<?xml version="1.0" encoding="UTF-8" standalone="no"?>
<svg
   xmlns:dc="http://purl.org/dc/elements/1.1/"
   xmlns:cc="http://creativecommons.org/ns#"
   xmlns:rdf="http://www.w3.org/1999/02/22-rdf-syntax-ns#"
   xmlns:svg="http://www.w3.org/2000/svg"
   xmlns="http://www.w3.org/2000/svg"
   xmlns:sodipodi="http://sodipodi.sourceforge.net/DTD/sodipodi-0.dtd"
   xmlns:inkscape="http://www.inkscape.org/namespaces/inkscape"
   viewBox="0 0 128 128"
   version="1.1"
   id="svg1092"
   sodipodi:docname="pineappleturt.svg"
   inkscape:version="0.92.5 (2060ec1f9f, 2020-04-08)">
  <metadata
     id="metadata1098">
    <rdf:RDF>
      <cc:Work
         rdf:about="">
        <dc:format>image/svg+xml</dc:format>
        <dc:type
           rdf:resource="http://purl.org/dc/dcmitype/StillImage" />
        <dc:title></dc:title>
      </cc:Work>
    </rdf:RDF>
  </metadata>
  <defs
     id="defs1096" />
  <sodipodi:namedview
     pagecolor="#ffffff"
     bordercolor="#666666"
     borderopacity="1"
     objecttolerance="10"
     gridtolerance="10"
     guidetolerance="10"
     inkscape:pageopacity="0"
     inkscape:pageshadow="2"
     inkscape:window-width="1920"
     inkscape:window-height="1012"
     id="namedview1094"
     showgrid="false"
     inkscape:zoom="3.6875"
     inkscape:cx="18.115779"
     inkscape:cy="85.961677"
     inkscape:window-x="0"
     inkscape:window-y="0"
     inkscape:window-maximized="1"
     inkscape:current-layer="svg1092" />
  <g
     id="g1710"
     transform="matrix(0.9182449,0,0,0.9182449,-3.798632,17.962333)">
    <path
       id="path955"
       d="m 119.6104,30.3585 c 9.79572,-4.463422 16.78745,1.46341 16.78745,1.46341 -3.84447,-9.645323 -13.98345,-11.853665 -13.98345,-11.853665 3.14726,-3.71849 13.28646,-1.499893 16.7833,1.46145 -3.84337,-9.642269 -10.48856,-8.888175 -10.48856,-8.888175 6.29866,-7.4350209 12.94189,-8.1849672 12.94189,-8.1849672 -3.20204,-2.7154945 -8.38549,-3.0845536 -13.0668,-2.6962851 l 5.61783,-9.9993029 c -3.4397,0.4396725 -9.52084,3.9514844 -14.51672,7.1744585 2.12434,-11.2872793 -5.99924,-18.1903483 -5.99924,-18.1903483 0.69306,13.3618529 -5.60582,20.7866183 -5.60582,20.7866183 0,0 -0.69393,-13.3546513 -10.836192,-15.5721553 3.121812,7.8299394 3.398742,14.28771459 2.649785,19.228237 -2.154741,-3.235369 -2.719639,-9.8621925 -8.950631,-11.7993241 0,0 3.843374,9.642269 0.990916,12.9140432 -4.250956,-5.96108041 -10.784683,-8.454768 -10.784683,-8.454768 7.335201,12.6088529 4.882969,29.6850489 4.882969,29.6850489 l 17.479416,14.822209 c 12.94299,-8.181913 23.43264,0.709316 23.43264,0.709316 2.80706,-10.39135 -7.3341,-12.6058 -7.3341,-12.6058 z"
       inkscape:connector-curvature="0"
       style="display:inline;fill:#5c913b;stroke-width:3.2437613" />
    <path
       style="display:inline;fill:#ffac33;fill-opacity:1"
       inkscape:connector-curvature="0"
       id="path1082"
       d="M 66.25,25.28 C 52.32,25.9 41.87,32.8 36.68,40.34 c -3.1,4.5 -4.65,7.74 -4.65,7.74 0,0 4.81,0.14 9.15,2.46 5,2.67 10.8,5.56 14.61,18.13 2.87,9.5 3.98,18.53 11.44,20.52 8.45,2.25 28.16,1.13 37.59,-8.02 9.43,-9.15 11.26,-16.05 8.87,-25.06 C 111.3,47.1 100.52,31.06 85.53,26.83 79.06,25 72.58,25 66.25,25.28 Z" />
    <path
       inkscape:connector-curvature="0"
       id="path1697"
       d="m 71.023438,25.146484 c -1.598751,0.01078 -3.190938,0.06281 -4.773438,0.132813 -6.484519,0.288615 -12.203249,1.949224 -17,4.390625 l -0.169922,2.96875 -0.203125,3.488281 -6.865234,-0.394531 0.07617,-1.306641 c -2.166244,1.849087 -3.990573,3.854537 -5.408203,5.914063 -0.759963,1.103171 -1.420483,2.124322 -1.994141,3.046875 l -0.285156,4.958984 c 1.798042,0.289992 4.347758,0.893551 6.779297,2.193359 5,2.670001 10.799374,5.56086 14.609374,18.13086 0.237191,0.785125 0.450243,1.557035 0.667969,2.332031 l 0.742188,0.04297 1.535156,0.08789 0.326172,0.01953 1.568359,0.0918 -0.01172,0.21289 -0.382813,6.642578 -1.775391,-0.101562 c 1.629462,5.231437 3.666734,9.409832 8.046875,10.943359 l 0.207032,-3.572265 6.84375,0.392578 -0.248047,4.320312 c 2.11941,0.133637 4.45247,0.136336 6.892578,-0.02148 l 0.222656,-3.904297 6.867188,0.392578 -0.152344,2.632813 c 2.371235,-0.443918 4.728378,-1.044262 6.988281,-1.830079 l 0.02344,-0.410156 0.9375,0.05469 c 3.722104,-1.400507 7.126111,-3.297243 9.732421,-5.826172 1.38838,-1.34715 2.59243,-2.640777 3.66211,-3.904297 l 0.1875,-3.263672 2.20117,0.126953 c 1.53771,-2.285095 2.57016,-4.490889 3.1543,-6.705078 l -4.96484,-0.287109 0.39453,-6.863281 5.0625,0.292968 c -0.14498,-1.439323 -0.41937,-2.916084 -0.82813,-4.457031 -0.20895,-0.787717 -0.50347,-1.642796 -0.83789,-2.525391 l -2.99804,-0.171875 0.31445,-5.460937 c -0.39864,-0.700618 -0.8245,-1.406923 -1.27735,-2.119141 -0.30234,-0.201365 -0.6057,-0.401688 -0.91406,-0.589843 0.0392,-0.212486 0.069,-0.425849 0.10352,-0.638672 -1.25796,-1.861728 -2.6909,-3.72216 -4.28516,-5.521485 l -0.0117,0.205078 -6.867186,-0.396484 0.34375,-5.970703 c -3.50085,-2.701377 -7.442972,-4.879963 -11.730469,-6.089844 -4.8525,-1.3725 -9.709609,-1.715937 -14.505859,-1.683594 z m -14.882813,4.517578 5.427734,0.310547 1.423829,0.08203 -0.394532,6.857421 -6.851562,-0.396484 z m 13.724609,0.785157 6.857422,0.396484 -0.394531,6.861328 -0.08203,-0.0039 v -0.002 l -6.775391,-0.390625 0.382813,-6.628906 -0.002,-0.002 z m 13.722657,0.794922 6.863281,0.390625 -0.394531,6.863281 -0.08398,-0.0039 -6.777344,-0.390625 0.382813,-6.628907 c -0.0011,-8.75e-4 -0.0028,-0.0011 -0.0039,-0.002 z m -41.966797,11.355468 4.970703,0.285157 c -3.48e-4,0.0012 3.48e-4,0.0027 0,0.0039 l 1.886719,0.109375 -0.392578,6.855469 -6.859376,-0.396485 z m 13.728515,0.789063 6.853516,0.394531 -0.398437,6.861328 -2.353516,-0.136719 -4.496094,-0.259765 z m 13.726563,0.792969 6.861328,0.390625 -0.193359,3.324218 c -0.0018,0.0015 -0.004,0.0024 -0.0059,0.0039 l -0.203125,3.53125 -6.855468,-0.396485 z m 13.720703,0.789062 6.859375,0.394531 -0.394531,6.859375 -6.857422,-0.396484 0.216797,-3.822266 z m 13.728516,0.787109 6.855469,0.396485 -0.39648,6.861328 -1.41407,-0.08203 -5.439451,-0.314453 z m -41.96875,11.359376 6.855468,0.394531 -0.394531,6.859375 -6.851562,-0.394532 z m 13.730468,0.792968 6.84961,0.394532 -0.394531,6.855468 -6.84961,-0.394531 z m 13.726563,0.78711 6.853516,0.394531 -0.390626,6.861328 -6.857421,-0.394531 z m 13.71875,0.791015 5.173828,0.294922 1.68945,0.09766 -0.39453,6.863282 -6.861326,-0.394532 h -0.0039 z M 67.5,71.642578 l 6.847656,0.394531 -0.398437,6.853516 -6.84961,-0.396484 0.05078,-0.894532 c 0.0013,2.22e-4 0.0027,-2.21e-4 0.0039,0 z m 13.724609,0.789063 6.855469,0.394531 -0.396484,6.853516 -6.857422,-0.392579 h -0.002 l 0.160156,-2.791015 c 0.0025,-8.55e-4 0.0053,-0.0011 0.0078,-0.002 z m 13.714844,0.783203 6.863277,0.394531 -0.39453,6.863281 -6.859372,-0.396484 z"
       style="display:inline;fill:#ffcc4d;fill-opacity:1" />
    <path
       inkscape:connector-curvature="0"
       style="display:inline;fill:#bdcf47;fill-opacity:1"
       id="path1685"
       d="m 31.419922,48.039062 c -6.136463,-0.0051 -12.229688,1.383594 -17.070313,5.371094 -15.4099996,12.71 -8.5392965,30.970469 -3.279297,36.230469 5.25,5.26 8.909063,6.199219 9.289063,6.949219 0.38,0.75 -0.63875,3.350156 -1.21875,5.160156 -0.65,2.06 -2.25125,5.62961 -1.03125,8.34961 1.22,2.72 5.400391,4.27078 8.400391,4.55078 3,0.29 8.450547,0.14008 10.560546,-1.91992 1.570001,-1.53 1.529844,-4.66992 1.339844,-6.16992 -0.21,-1.68 -0.419922,-4.00977 -0.419922,-4.00977 0,0 5.780157,0.66828 10.160157,0.98828 4.84,0.35 12.859375,0.75 12.859375,0.75 0,0 0.189453,3.95032 0.189453,5.07032 0,1.11999 0.190859,6.47156 1.130859,7.60156 0.94,1.12 2.429609,2.96 8.34961,3 7.58,0.05 10.800078,-3.09071 11.830078,-4.97071 1.14,-2.07 0.469296,-5.16031 0.279296,-7.32031 -0.19,-2.16 -1.359374,-7.50976 -1.359374,-7.50976 -10e-7,0 6.060546,-3.100707 8.310546,-4.220707 2.25,-1.12 7.039063,-4.080078 7.039063,-4.080078 0,0 0.420547,2.490234 0.560547,3.240234 0.19,1.04 1.879219,2.750313 7.699216,2.820313 7.32,0.09 10.18,-4.929766 10.75,-6.759766 0.57,-1.83 -0.74992,-6.571015 -1.16992,-8.541015 -0.42,-1.97 -1.8093,-7.060079 -1.5293,-8.330079 0.28,-1.27 5.26039,-7.698125 7.40039,-10.828124 2.35,-3.420001 3.81883,-6.701329 3.04883,-7.861329 -1.31,-1.98 -4.9182,0.279844 -5.9082,0.839844 -0.68958,0.390065 -2.21189,1.243017 -3.43555,1.929688 1.50452,7.940482 -0.74995,14.431833 -9.375,22.800781 -9.429998,9.15 -29.139841,10.269531 -37.589841,8.019531 -7.46,-1.99 -8.571407,-11.019531 -11.441407,-20.519531 -3.81,-12.57 -9.609374,-15.460859 -14.609374,-18.13086 -4.340001,-2.32 -9.150391,-2.458984 -9.150391,-2.458984 0,0 0.01324,-0.02644 0.01367,-0.02734 -0.20763,-0.0033 -0.415468,-0.0135 -0.623047,-0.01367 z" />
    <path
       style="display:inline;fill:#2a2b28"
       inkscape:connector-curvature="0"
       id="path1086"
       d="m 41.18,65.86 c 0.5,2.83 -0.95,5.75 -4.07,6.02 -2.56,0.22 -4.59,-1.57 -5.09,-4.4 -0.5,-2.83 1.14,-5.49 3.68,-5.94 2.52,-0.45 4.98,1.48 5.48,4.32 z" />
    <path
       id="path1088"
       d="m 22.82,66.11 c 0.07,2.84 -2.42,5.69 -5.5,5.11 -2.53,-0.48 -3.99,-2.73 -3.71,-5.55 0.29,-2.82 2.59,-4.9 5.15,-4.65 2.56,0.25 3.99,2.13 4.06,5.09 z"
       inkscape:connector-curvature="0"
       style="fill:#2a2b28" />
    <path
       style="display:inline;fill:#2a2b28"
       inkscape:connector-curvature="0"
       id="path1090"
       d="m 30.77,76.59 c 1.16,-0.79 3.1,-2.67 4.36,-1.06 1.27,1.62 -0.92,3.1 -2.18,4.01 -1.27,0.92 -4.08,3.17 -6.12,3.17 -1.9,0 -4.79,-2.32 -6.62,-3.87 -1.49,-1.26 -2.18,-2.89 -1.34,-3.87 0.84,-0.98 2.14,-0.62 3.24,0.35 1.27,1.13 3.72,3.38 4.72,3.38 0.98,0.01 2.39,-1.05 3.94,-2.11 z" />
  </g>
</svg>
