<?xml version="1.0" encoding="UTF-8" standalone="no"?>
<svg
   xmlns:dc="http://purl.org/dc/elements/1.1/"
   xmlns:cc="http://creativecommons.org/ns#"
   xmlns:rdf="http://www.w3.org/1999/02/22-rdf-syntax-ns#"
   xmlns:svg="http://www.w3.org/2000/svg"
   xmlns="http://www.w3.org/2000/svg"
   xmlns:sodipodi="http://sodipodi.sourceforge.net/DTD/sodipodi-0.dtd"
   xmlns:inkscape="http://www.inkscape.org/namespaces/inkscape"
   width="158.42645"
   height="166.88162"
   viewBox="0 0 118.82902 125.15932"
   version="1.1"
   id="svg1012"
   sodipodi:docname="pineapple.svg"
   inkscape:version="0.92.5 (2060ec1f9f, 2020-04-08)">
  <metadata
     id="metadata1016">
    <rdf:RDF>
      <cc:Work
         rdf:about="">
        <dc:format>image/svg+xml</dc:format>
        <dc:type
           rdf:resource="http://purl.org/dc/dcmitype/StillImage" />
        <dc:title></dc:title>
      </cc:Work>
    </rdf:RDF>
  </metadata>
  <sodipodi:namedview
     pagecolor="#ffffff"
     bordercolor="#666666"
     borderopacity="1"
     objecttolerance="10"
     gridtolerance="10"
     guidetolerance="10"
     inkscape:pageopacity="0"
     inkscape:pageshadow="2"
     inkscape:window-width="1920"
     inkscape:window-height="1012"
     id="namedview1014"
     showgrid="false"
     fit-margin-top="0"
     fit-margin-left="0"
     fit-margin-right="0"
     fit-margin-bottom="0"
     units="px"
     inkscape:zoom="2.264841"
     inkscape:cx="2.5522233"
     inkscape:cy="8.1280676"
     inkscape:window-x="0"
     inkscape:window-y="0"
     inkscape:window-maximized="1"
     inkscape:current-layer="svg1012" />
  <defs
     id="defs982">
    <style
       id="style980">
      .cls-1 {
        fill: #69b549;
      }

      .cls-2 {
        fill: #f39110;
      }

      .cls-3 {
        fill: #f8b939;
      }

      .cls-4 {
        fill: #2b2c29;
      }

      .cls-5 {
        fill: #c16a4f;
      }

      .cls-6 {
        fill: #d99e83;
      }

      .cls-7 {
        fill: #40732e;
      }

      .cls-8 {
        fill: #5d913b;
      }
    </style>
    <filter
       inkscape:collect="always"
       style="color-interpolation-filters:sRGB"
       id="filter1731">
      <feBlend
         inkscape:collect="always"
         mode="multiply"
         in2="BackgroundImage"
         id="feBlend1733" />
    </filter>
  </defs>
  <path
     class="cls-2"
     d="m 95.178613,69.840538 4.27,-2.63 c 0.859997,-0.53 4.000007,-2.67 5.210007,-1 0.72999,1 -0.46001,4 -2.42,7.08 -1.79,2.86 -6.000007,8.74 -6.180007,9.88 -0.18,1.14 1.21,5.6 1.65,7.33 0.44,1.73 1.78,5.89 1.34,7.54 -0.44,1.65 -2.8,6.200002 -9.3,6.380002 -5.160003,0.14 -6.720003,-1.32 -6.929997,-2.23 -0.150004,-0.66 -0.61,-2.860002 -0.61,-2.860002 0,0 -4.140004,2.800002 -6.100003,3.870002 -1.959999,1.07 -7.22,4 -7.22,4 0,0 1.22,4.71 1.470001,6.62 0.249999,1.91 0.95,4.63 0,6.5 -0.850001,1.71 -3.590001,4.61 -10.320001,4.83 -5.25,0.18 -6.64,-1.4 -7.51,-2.36 -0.87,-0.96 -1.24,-5.71 -1.279999,-6.71 -0.04,-1 -0.350001,-4.49 -0.350001,-4.49 0,0 -7.13,-0.07 -11.429999,-0.21 -3.9,-0.12 -9.000001,-0.51 -9.000001,-0.51 0,0 0.27,2.06 0.510001,3.54 0.229999,1.32 0.37,4.11 -1.000001,5.52 -1.79,1.9 -6.63,2.23 -9.3,2.08 -2.669999,-0.15 -6.429999,-1.37 -7.609999,-3.74 -1.180001,-2.37 0.109999,-5.59 0.62,-7.44 0.449999,-1.63 1.26,-4 0.89,-4.62 -0.370001,-0.62 -3.640001,-1.36 -8.4799995,-5.84 -4.84,-4.480002 -11.6099999,-20.350002 1.61,-32.180002 13.2199985,-11.83 38.9099985,-0.58 40.2699995,0.2 1.36,0.78 47.199999,1.45 47.199999,1.45 z"
     id="path8236"
     inkscape:connector-curvature="0"
     style="display:inline;fill:#bdcf47;fill-opacity:1;stroke-width:0.99999994" />
  <path
     id="path955"
     d="m 100.22825,43.869215 c 8.52531,-4.315501 14.94224,0.686348 14.94224,0.686348 -3.76107,-8.414462 -12.83386,-10.003699 -12.83386,-10.003699 2.65587,-3.412612 11.72923,-1.814289 14.93849,0.684761 -3.75998,-8.411794 -9.62619,-7.500899 -9.62619,-7.500899 5.31548,-6.823639 11.18009,-7.730784 11.18009,-7.730784 -2.93884,-2.291745 -7.54952,-2.430235 -11.68727,-1.915337 l 4.61823,-9.0731199 c -3.03469,0.5152565 -8.30016,3.8514459 -12.613637,6.8919269 1.472897,-10.08817 -5.98344,-15.91461828 -5.98344,-15.91461828 1.10145,11.82548828 -4.2146,18.64004028 -4.2146,18.64004028 0,0 -1.101957,-11.8190699 -10.177995,-13.4163123 3.054003,6.8307103 3.534869,12.5480753 3.050595,16.9571493 -2.028921,-2.790978 -2.771347,-8.647783 -8.368234,-10.138847 0,0 3.759986,8.411794 1.349307,11.417471 -3.987368,-5.132069 -9.873028,-7.105719 -9.873028,-7.105719 6.964987,10.915675 5.412164,26.150026 5.412164,26.150026 L 86.383717,55.00677 c 11.181176,-7.728116 20.808433,-0.224547 20.808433,-0.224547 2.11105,-9.318434 -6.9639,-10.913008 -6.9639,-10.913008 z"
     inkscape:connector-curvature="0"
     style="display:inline;fill:#5c913b;stroke-width:2.87934422" />
  <path
     style="display:inline;fill:#ffac33;fill-opacity:1;stroke-width:0.88765603"
     inkscape:connector-curvature="0"
     id="path1082"
     d="m 52.717476,41.308958 c -12.332044,1.057349 -21.348869,7.557706 -25.677242,14.434064 -2.585482,4.104019 -3.842157,7.034067 -3.842157,7.034067 0,0 4.271128,-0.05106 8.204827,1.848462 4.531808,2.185896 9.781157,4.537768 13.618199,15.547406 2.891509,8.321075 4.204937,16.289418 10.893767,17.782599 7.576341,1.687713 25.016499,-0.02366 33.046713,-8.482397 8.03021,-8.458742 9.40189,-14.645074 6.95394,-22.54905 C 93.467583,59.020134 83.322382,45.18684 69.873531,41.9813 64.068569,40.593959 58.321404,40.830023 52.717476,41.308958 Z" />
  <path
     inkscape:connector-curvature="0"
     id="path1697"
     d="m 56.946213,41.016646 c -1.417553,0.0678 -2.827781,0.171952 -4.228763,0.291688 -5.740659,0.492205 -10.752151,2.173344 -14.917489,4.513387 l -0.04256,2.639199 -0.05308,3.101184 -6.103204,-0.09981 0.01995,-1.161645 c -1.853898,1.718886 -3.398852,3.563996 -4.581132,5.44225 -0.633829,1.006097 -1.182449,1.935826 -1.657623,2.774944 l -0.07225,4.408552 c 1.605262,0.191694 3.888613,0.63411 6.092517,1.69834 4.531808,2.185897 9.780633,4.538553 13.617675,15.548192 0.238969,0.687692 0.456047,1.364544 0.677383,2.043963 l 0.659818,0.01107 1.364744,0.02202 0.289996,0.0054 1.394335,0.02428 -0.0026,0.189241 -0.09753,5.905302 -1.578309,-0.0254 c 1.635763,4.580443 3.594854,8.212078 7.535503,9.412609 l 0.05348,-3.175813 6.084079,0.09886 -0.06261,3.840756 c 1.88459,0.04131 3.953898,-0.04128 6.112301,-0.270145 l 0.05524,-3.470864 6.104866,0.09801 -0.0392,2.340614 c 2.086896,-0.480098 4.155595,-1.098419 6.131294,-1.877694 l 0.0058,-0.364624 0.833469,0.01435 c 3.250144,-1.377717 6.200088,-3.183954 8.41952,-5.521829 1.18229,-1.245377 2.20305,-2.436568 3.10572,-3.596163 l 0.0474,-2.901408 1.95686,0.03241 c 1.28057,-2.082688 2.1159,-4.076636 2.55331,-6.061699 l -4.41381,-0.07377 0.0999,-6.101473 4.50065,0.07541 c -0.18102,-1.271266 -0.47818,-2.571022 -0.89685,-3.922809 -0.21401,-0.691021 -0.50637,-1.438668 -0.83513,-2.209266 l -2.66524,-0.04322 0.0799,-4.854805 c -0.37908,-0.606862 -0.78251,-1.217775 -1.21009,-1.83295 -0.27548,-0.167578 -0.55183,-0.334195 -0.83217,-0.489838 0.027,-0.189883 0.0457,-0.380202 0.0685,-0.570214 -1.18351,-1.605355 -2.522179,-3.203186 -4.00169,-4.740943 l -0.0029,0.182312 -6.105007,-0.101476 0.08736,-5.307987 c -3.203342,-2.268339 -6.779008,-4.056934 -10.6257,-4.973795 -4.353721,-1.040506 -8.674042,-1.16816 -12.926697,-0.964748 z m -13.035114,4.548854 4.825214,0.0777 1.265794,0.02088 -0.100099,6.096275 -6.09115,-0.102044 z m 12.20107,0.196378 6.096348,0.101831 -0.09996,6.09974 -0.0729,-4.7e-4 -7.3e-5,-0.0018 -6.02338,-0.09962 0.09803,-5.893176 -0.0018,-0.0017 z m 12.199696,0.20511 6.10133,0.09642 -0.09989,6.101473 -0.07462,-4e-4 -6.025112,-0.09955 0.09803,-5.893177 c -0.001,-7.36e-4 -0.0025,-8.74e-4 -0.0035,-0.0016 z m -36.807018,11.600097 4.418945,0.07183 c -2.65e-4,0.0011 4.07e-4,0.0024 1.42e-4,0.0035 l 1.677331,0.02827 -0.09844,6.094473 -6.098081,-0.10176 z m 12.204677,0.1997 6.092812,0.100241 -0.103421,6.099883 -2.092333,-0.03552 -3.997085,-0.0666 z m 12.203089,0.203235 6.099598,0.09649 -0.05039,2.95532 c -0.0015,0.0014 -0.0035,0.0023 -0.0051,0.0037 l -0.05151,3.139294 -6.094614,-0.101903 z m 12.197748,0.199984 6.098008,0.100028 -0.100027,6.098008 -6.096347,-0.101831 0.05303,-3.397896 z m 12.204607,0.197967 6.094615,0.101903 -0.101685,6.099812 -1.257138,-0.02124 -4.835749,-0.08073 z m -36.808607,11.603634 6.094543,0.10017 -0.100028,6.098008 -6.091079,-0.100313 z m 12.206551,0.203093 6.089348,0.100384 -0.10017,6.094543 -6.089347,-0.100383 z m 12.202875,0.198039 6.092812,0.100241 -0.09649,6.099598 -6.096275,-0.100099 z m 12.196088,0.201787 4.599454,0.07309 1.501945,0.02507 -0.09989,6.101473 -6.099738,-0.09996 -0.0035,1.42e-4 z m -24.596787,11.808245 6.087614,0.100454 -0.103705,6.092954 -6.089419,-0.102115 0.01245,-0.795218 c 0.0012,1.5e-4 0.0024,-2.94e-4 0.0035,-1.42e-4 z m 12.201212,0.199842 6.094544,0.10017 -0.101973,6.092883 -6.096205,-0.09837 -0.0018,7.3e-5 0.04037,-2.481209 c 0.0022,-8.49e-4 0.0047,-0.0012 0.0068,-0.0021 z m 12.192339,0.195001 6.101469,0.09989 -0.09988,6.101472 -6.098077,-0.10176 z"
     style="display:inline;fill:#ffcc4d;fill-opacity:1;stroke-width:0.88765603" />
  <path
     style="display:inline;fill:#2a2b28;stroke-width:0.88765603"
     inkscape:connector-curvature="0"
     id="path1086"
     d="m 31.961007,78.212984 c 0.54655,2.491735 -0.633092,5.13433 -3.390409,5.487456 -2.26247,0.28838 -4.128103,-1.225233 -4.674653,-3.716968 -0.546551,-2.491736 0.811076,-4.910656 3.047429,-5.402296 2.218615,-0.490912 4.470719,1.131204 5.017633,3.631808 z" />
  <path
     id="path1088"
     d="m 15.686481,79.103561 c 0.165544,2.516269 -1.939033,5.134667 -4.691839,4.732464 -2.2613635,-0.333548 -3.6382165,-2.275904 -3.4926135,-4.787186 0.154471,-2.511645 2.118586,-4.440203 4.3981785,-4.311736 2.279592,0.128467 3.616358,1.74376 3.786274,4.366458 z"
     inkscape:connector-curvature="0"
     style="fill:#2a2b28;stroke-width:0.88765603" />
  <path
     style="display:inline;fill:#2a2b28;stroke-width:0.88765603"
     inkscape:connector-curvature="0"
     id="path1090"
     d="m 23.119184,88.108742 c 1.000034,-0.742916 2.652148,-2.480977 3.828304,-1.098956 1.18539,1.390525 -0.703023,2.78293 -1.787376,3.635918 -1.092858,0.862222 -3.503103,2.960132 -5.312396,3.034449 -1.685125,0.06922 -4.332807,-1.883128 -6.012315,-3.191169 -1.367394,-1.063224 -2.038741,-2.483748 -1.32944,-3.383519 0.709302,-0.899771 1.875397,-0.627843 2.886333,0.192385 1.167539,0.955941 3.422431,2.862231 4.309339,2.825801 0.869534,-0.02683 2.081459,-1.01832 3.417551,-2.014909 z" />
</svg>
